<?xml version="1.0" encoding="utf-8"?>
<!-- Generator: Adobe Illustrator 22.0.1, SVG Export Plug-In . SVG Version: 6.00 Build 0)  -->
<svg version="1.1" id="Capa_1" xmlns="http://www.w3.org/2000/svg" xmlns:xlink="http://www.w3.org/1999/xlink" x="0px" y="0px"
	 viewBox="0 0 192.7 110" style="enable-background:new 0 0 192.7 110;" xml:space="preserve">
<g>
	<path d="M6.1,42.7c-0.3-0.1-0.5-0.3-0.7-0.7c-0.2-0.3-0.2-0.7,0-1c0.2-0.8,0.8-1.1,1.5-0.8c3,1.1,5.9,1.6,8.8,1.7
		c2.8,0.1,5.6-0.2,8.3-1c0.8-4.1,1.6-8,2.6-11.6c1-3.6,2.3-6.8,3.9-9.5c1.6-2.7,3.4-4.6,5.3-5.9c1.9-1.2,3.7-1.8,5.4-1.8
		c1.6,0,2.8,0.4,3.8,1.1c1,0.7,1.7,1.6,2.1,2.8c0.4,1.1,0.6,2.4,0.6,3.8c-0.1,1.4-0.3,2.7-0.8,4c-0.8,2-2.1,4.2-3.9,6.6
		c-2.1,2.6-4.3,4.8-6.6,6.7c-2.3,1.9-4.8,3.5-7.4,4.7c-0.3,1.8-0.6,3.5-0.9,5.3s-0.6,3.6-0.9,5.4c-0.8,4.9-1.6,9.7-2.4,14.4
		c-0.9,4.7-2,8.9-3.5,12.7c2.3,0.3,4.4,0.8,6.4,1.5c2,0.7,4,1.4,5.9,2.1c1.9,0.8,3.8,1.4,5.7,2c1.9,0.6,3.7,0.9,5.5,0.9
		c1.8,0.1,3.6-0.3,5.4-1c1.8-0.7,3.7-2,5.5-3.8c0.2-0.3,0.5-0.4,0.8-0.4c0.3,0.1,0.6,0.2,0.8,0.4c0.2,0.2,0.3,0.5,0.3,0.9
		s-0.1,0.7-0.4,0.9c-2.1,2.1-4.2,3.5-6.2,4.3c-2,0.8-4.1,1.2-6.1,1.2c-2,0-4-0.3-6.1-0.9c-2-0.6-4.1-1.3-6.2-2.2
		c-2-0.7-4-1.4-6.1-2.1c-2.1-0.7-4.2-1.2-6.5-1.4c-0.7,1.5-1.5,2.9-2.3,4.1C17,87.5,16,88.6,15,89.5c-2.3,2.1-4.4,3.3-6.3,3.6
		c-1.9,0.3-3.5,0.2-4.7-0.6c-1.2-0.7-2-1.8-2.3-3.2c-0.3-1.4-0.1-2.9,0.7-4.3c0.8-1.4,2.3-2.7,4.6-3.8c2.2-1.1,5.3-1.8,9.2-1.9
		c1.5-3.7,2.7-7.9,3.6-12.6c0.9-4.7,1.7-9.6,2.4-14.6c0.2-1.4,0.5-2.8,0.7-4.2c0.2-1.3,0.4-2.7,0.6-4.1c-2.8,0.7-5.6,1-8.4,0.8
		C12,44.4,9.1,43.8,6.1,42.7z M10.7,87.5c1.6-1.4,2.9-3.3,4.1-5.6c-2.6,0.2-4.6,0.7-6.2,1.4S5.8,84.9,5,85.7
		c-0.8,0.8-1.2,1.7-1.3,2.5c-0.1,0.8,0.2,1.4,0.7,1.7c0.5,0.3,1.3,0.4,2.4,0C8,89.7,9.2,88.9,10.7,87.5z M29.4,38.6
		c4.2-2.2,8.1-5.5,11.6-10c1.6-2,2.8-3.9,3.5-5.7c0.5-1.3,0.8-2.5,0.8-3.7s-0.3-2.2-0.8-3c-0.5-0.8-1.2-1.1-2.2-1.1
		c-1,0-2.1,0.6-3.5,1.7c-1.2,1-2.4,2.5-3.7,4.4c-1.3,2.2-2.4,4.8-3.3,7.8C30.9,32.1,30.1,35.3,29.4,38.6z"/>
	<path d="M71.5,42.7c-0.3-0.1-0.5-0.3-0.7-0.7c-0.2-0.3-0.2-0.7,0-1c0.2-0.8,0.8-1.1,1.5-0.8c3,1.1,5.9,1.6,8.8,1.7
		c2.8,0.1,5.6-0.2,8.3-1c0.8-4.1,1.6-8,2.6-11.6c1-3.6,2.3-6.8,3.9-9.5c1.6-2.7,3.4-4.6,5.3-5.9c1.9-1.2,3.7-1.8,5.4-1.8
		c1.6,0,2.8,0.4,3.8,1.1c1,0.7,1.7,1.6,2.1,2.8c0.4,1.1,0.6,2.4,0.6,3.8c-0.1,1.4-0.3,2.7-0.8,4c-0.8,2-2.1,4.2-3.9,6.6
		c-2.1,2.6-4.3,4.8-6.6,6.7c-2.3,1.9-4.8,3.5-7.4,4.7c-0.3,1.8-0.6,3.5-0.9,5.3s-0.6,3.6-0.9,5.4c-0.8,4.9-1.6,9.7-2.4,14.4
		c-0.9,4.7-2,8.9-3.5,12.7c2.3,0.3,4.4,0.8,6.4,1.5c2,0.7,4,1.4,5.9,2.1c1.9,0.8,3.8,1.4,5.7,2c1.9,0.6,3.7,0.9,5.5,0.9
		c1.8,0.1,3.6-0.3,5.4-1c1.8-0.7,3.7-2,5.5-3.8c0.2-0.3,0.5-0.4,0.8-0.4c0.3,0.1,0.6,0.2,0.8,0.4c0.2,0.2,0.3,0.5,0.3,0.9
		s-0.1,0.7-0.4,0.9c-2.1,2.1-4.2,3.5-6.2,4.3c-2,0.8-4.1,1.2-6.1,1.2c-2,0-4-0.3-6.1-0.9c-2-0.6-4.1-1.3-6.2-2.2
		c-2-0.7-4-1.4-6.1-2.1c-2.1-0.7-4.2-1.2-6.5-1.4c-0.7,1.5-1.5,2.9-2.3,4.1c-0.8,1.3-1.8,2.3-2.9,3.3c-2.3,2.1-4.4,3.3-6.3,3.6
		c-1.9,0.3-3.5,0.2-4.7-0.6c-1.2-0.7-2-1.8-2.3-3.2c-0.3-1.4-0.1-2.9,0.7-4.3c0.8-1.4,2.3-2.7,4.6-3.8c2.2-1.1,5.3-1.8,9.2-1.9
		c1.5-3.7,2.7-7.9,3.6-12.6c0.9-4.7,1.7-9.6,2.4-14.6c0.2-1.4,0.5-2.8,0.7-4.2c0.2-1.3,0.4-2.7,0.6-4.1c-2.8,0.7-5.6,1-8.4,0.8
		C77.4,44.4,74.5,43.8,71.5,42.7z M76.1,87.5c1.6-1.4,2.9-3.3,4.1-5.6c-2.6,0.2-4.6,0.7-6.2,1.4s-2.8,1.5-3.6,2.4
		c-0.8,0.8-1.2,1.7-1.3,2.5c-0.1,0.8,0.2,1.4,0.7,1.7c0.5,0.3,1.3,0.4,2.4,0C73.4,89.7,74.7,88.9,76.1,87.5z M94.9,38.6
		c4.2-2.2,8.1-5.5,11.6-10c1.6-2,2.8-3.9,3.5-5.7c0.5-1.3,0.8-2.5,0.8-3.7s-0.3-2.2-0.8-3c-0.5-0.8-1.2-1.1-2.2-1.1
		c-1,0-2.1,0.6-3.5,1.7c-1.2,1-2.4,2.5-3.7,4.4c-1.3,2.2-2.4,4.8-3.3,7.8C96.4,32.1,95.6,35.3,94.9,38.6z"/>
	<path d="M141.2,86.9c0.5-0.9,1-1.9,1.4-3c0.4-1.1,0.8-2.4,1.2-3.8c1.1-3.9,2-8.2,2.9-12.8c0.9-4.7,1.7-9.4,2.3-14.3
		c0.9-6.1,1.6-11.8,2.2-17.2c0.6-5.4,1-9.9,1.3-13.5c-1.1,1.4-2.4,2.6-3.8,3.5c-1.4,0.9-2.8,1.7-4.1,2.3c-0.9,0.5-1.8,1-2.7,1.5
		c-0.9,0.5-1.6,1.1-2.2,1.8c-0.6,0.7-1,1.5-1.2,2.4c-0.2,0.9-0.2,2.1,0,3.4c0.1,0.4,0,0.8-0.2,1c-0.2,0.3-0.5,0.4-0.8,0.5
		c-0.3,0.1-0.6,0.1-0.8-0.1c-0.3-0.2-0.5-0.5-0.5-0.9c-0.4-1.8-0.4-3.3-0.1-4.6c0.3-1.3,0.8-2.3,1.5-3.2c0.7-0.9,1.6-1.6,2.7-2.3
		c1.1-0.7,2.2-1.3,3.4-1.9c0.9-0.5,1.8-1,2.7-1.6c0.9-0.6,1.8-1.2,2.7-2s1.6-1.6,2.3-2.6c0.7-1,1.3-2.1,1.7-3.5
		c0.1-0.4,0.5-0.7,1-0.9c0.6-0.2,1.1-0.1,1.7,0c0.6,0.2,1.1,0.6,1.5,1.1c0.4,0.6,0.6,1.3,0.6,2.3c-0.1,1.6-0.3,3.6-0.5,6.1
		c-0.2,2.5-0.5,5.5-0.8,8.8l0.6-1c0.9-1.7,1.9-3.5,3-5.3c1.1-1.8,2.3-3.7,3.5-5.5c1.1-1.5,2.3-2.9,3.7-4.2c1.4-1.3,2.8-2.1,4.2-2.6
		c1.4-0.4,2.7-0.3,4,0.5c1.3,0.8,2.3,2.4,3,4.9c0.7,2.3,1,4.7,0.9,7.4c-0.1,2.7-0.5,5.3-1.2,8c-0.5,1.9-1.2,3.9-2.1,6.1
		c-0.9,2.2-2,4.3-3.3,6.3c-1.3,2-2.7,3.8-4.4,5.4c-1.6,1.6-3.4,2.6-5.4,3.2c0.9,1.9,1.6,4.2,2,7c0.4,2.8,0.7,5.8,1,9
		c0.2,2.8,0.5,5.5,0.8,8.3c0.3,2.8,0.8,5.3,1.5,7.7c0.7,2.3,1.7,4.3,3,5.9c1.3,1.6,2.9,2.6,5,3.1c0.3-0.1,0.6,0,0.8,0.3
		s0.4,0.6,0.5,1c0.1,0.4,0,0.7-0.3,1c-0.3,0.3-0.7,0.4-1.3,0.3c-3.2-0.2-5.7-1.3-7.6-3.2c-1.8-1.9-3.3-4.4-4.3-7.2
		c-1-2.9-1.7-6-2.2-9.5c-0.4-3.4-0.8-6.8-1-10c-0.2-2.8-0.4-5.4-0.7-7.7c-0.3-2.3-0.7-4.2-1.3-5.5c-1.2-0.2-2.3-0.5-3.2-0.9
		c-0.6-0.2-1.3-0.6-2.2-1.1c-0.7,4.6-1.4,9.2-2.3,13.6c-0.8,4.4-1.8,8.5-2.8,12.2c-0.9,3.3-2,5.9-3.3,7.8c-1.3,1.9-2.7,3.3-4.2,3.9
		c-1.3,0.6-2.5,0.8-3.8,0.5c-1.3-0.3-2.4-1-3.2-2.3c-0.9-1.3-1.5-3-1.9-5.2c-0.4-2.2-0.3-4.9,0.2-8c0.1-0.4,0.2-0.7,0.5-0.9
		c0.3-0.2,0.6-0.2,0.9-0.1c0.3,0.1,0.6,0.2,0.8,0.5c0.2,0.3,0.2,0.6,0.2,1c-0.4,2.8-0.5,5.1-0.2,6.9c0.3,1.8,0.8,3.3,1.5,4.3
		c0.5,0.7,1,1.1,1.5,1.1c0.5,0.1,0.9,0,1.3-0.3c0.4-0.3,0.8-0.7,1.2-1.3C140.6,88.1,140.9,87.5,141.2,86.9z M155.9,40.9
		c-0.2,1.8-0.4,3.7-0.7,5.5c-0.3,1.9-0.5,3.8-0.8,5.8c0.3,0.2,0.6,0.4,0.9,0.6c0.3,0.2,0.6,0.4,0.9,0.5c0.3-0.6,0.9-0.8,1.8-0.7
		c0.9,0.2,1.6,0.4,2.1,0.6l0.9,0.6c1.6-0.6,3-1.7,4.3-3.1c1.3-1.5,2.5-3.1,3.6-4.9c1.1-1.8,2-3.6,2.8-5.5c0.8-1.9,1.3-3.7,1.8-5.3
		c0.6-2.4,1-4.8,1.1-7.2c0.1-2.4-0.2-4.6-0.8-6.6c-0.3-1.4-0.8-2.2-1.4-2.5c-0.6-0.3-1.3-0.3-2.1,0.1c-0.8,0.4-1.6,1-2.4,1.9
		c-0.8,0.9-1.6,1.8-2.3,2.7c-1.3,1.7-2.4,3.5-3.4,5.3c-1,1.8-2,3.6-2.9,5.2c-0.9,1.6-1.6,3-2.2,4.2
		C156.6,39.2,156.2,40.2,155.9,40.9z"/>
	<path d="M186.1,78.6c-0.1,0.9-0.5,1.6-1,2.1c-0.6,0.5-1.2,0.7-1.8,0.7c-0.7,0-1.2-0.3-1.7-0.8c-0.5-0.5-0.8-1.2-0.8-2.2
		c0.1-1.1,0.4-1.8,1-2.3c0.6-0.5,1.2-0.7,1.8-0.7c0.6,0,1.2,0.3,1.7,0.8C185.9,76.8,186.1,77.6,186.1,78.6z"/>
</g>
</svg>
